<?xml version="1.0" encoding="UTF-8" standalone="no"?>
<!DOCTYPE svg PUBLIC "-//W3C//DTD SVG 1.1//EN" "http://www.w3.org/Graphics/SVG/1.1/DTD/svg11.dtd">
<!-- Generated by Microsoft Visio, SVG Export Logo.svg Page-1 -->
<svg xmlns="http://www.w3.org/2000/svg" xmlns:xlink="http://www.w3.org/1999/xlink" xmlns:ev="http://www.w3.org/2001/xml-events"
		xmlns:v="http://schemas.microsoft.com/visio/2003/SVGExtensions/" width="8.26772in" height="11.6929in"
		viewBox="0 0 595.276 841.89" xml:space="preserve" color-interpolation-filters="sRGB" class="st4">
	<v:documentProperties v:langID="8192" v:metric="true" v:viewMarkup="false">
		<v:userDefs>
			<v:ud v:nameU="msvNoAutoConnect" v:val="VT0(1):26"/>
		</v:userDefs>
	</v:documentProperties>

	<style type="text/css">
	<![CDATA[
		.st1 {fill:#3b59a5;stroke:none;stroke-linecap:butt;stroke-width:25.5}
		.st2 {fill:none;stroke:none;stroke-linecap:round;stroke-linejoin:round;stroke-width:0.75}
		.st3 {fill:#3b59a5;font-family:Nunito;font-size:1.99999em}
		.st4 {fill:none;fill-rule:evenodd;font-size:12px;overflow:visible;stroke-linecap:square;stroke-miterlimit:3}
	]]>
	</style>

	<g v:mID="0" v:index="1" v:groupContext="foregroundPage">
		<title>Page-1</title>
		<v:pageProperties v:drawingScale="0.0393701" v:pageScale="0.0393701" v:drawingUnits="24" v:shadowOffsetX="9"
				v:shadowOffsetY="-9"/>
		<g id="group1-1" transform="translate(174.092,-751.384)" v:mID="1" v:groupContext="group">
			<title>Sheet.1</title>
			<g id="shape2-2" v:mID="2" v:groupContext="shape">
				<title>Sheet.2</title>
				<path d="M9.55 825.99 C14.32 825.99 18.28 829.42 19.11 833.94 C18.28 838.46 14.32 841.89 9.55 841.89 C4.79 841.89
							 0.83 838.46 0 833.94 C0.83 829.42 4.79 825.99 9.55 825.99 ZM9.55 840.12 C13.29 840.12 16.5 837.52 17.31
							 833.94 C16.5 830.36 13.29 827.76 9.55 827.76 C5.81 827.76 2.61 830.36 1.8 833.94 C2.61 837.52 5.81 840.12
							 9.55 840.12 ZM9.55 837.92 C7.36 837.92 5.58 836.14 5.58 833.94 C5.58 831.75 7.36 829.97 9.55 829.97
							 C11.75 829.97 13.53 831.75 13.53 833.94 C13.53 836.14 11.75 837.92 9.55 837.92 ZM9.55 836.15 C10.77
							 836.15 11.76 835.16 11.76 833.94 C11.76 832.72 10.77 831.73 9.55 831.73 C8.33 831.73 7.35 832.72 7.35
							 833.94 C7.35 835.16 8.33 836.15 9.55 836.15 Z" class="st1"/>
			</g>
		</g>
		<g id="group3-4" transform="translate(165.26,-738.425)" v:mID="3" v:groupContext="group">
			<title>Sheet.3</title>
			<g id="shape4-5" v:mID="4" v:groupContext="shape">
				<title>Sheet.4</title>
				<path d="M3.68 830.86 L33.09 830.86 L33.09 810.63 L3.68 810.63 L3.68 830.86 ZM20.22 834.54 L20.22 838.21 L27.58 838.21
							 L27.58 841.89 L9.19 841.89 L9.19 838.21 L16.55 838.21 L16.55 834.54 L1.82 834.54 C0.82 834.54 0 833.71
							 0 832.68 L0 808.81 C0 807.79 0.84 806.96 1.82 806.96 L34.95 806.96 C35.96 806.96 36.77 807.78 36.77
							 808.81 L36.77 832.68 C36.77 833.71 35.94 834.54 34.95 834.54 L20.22 834.54 Z" class="st1"/>
			</g>
		</g>
		<g id="shape5-7" v:mID="5" v:groupContext="shape" transform="translate(210.614,-740.539)">
			<title>Sheet.5</title>
			<desc>PNMT</desc>
			<v:textBlock v:margins="rect(4,4,4,4)" v:tabSpace="42.5197"/>
			<v:textRect cx="41.1024" cy="824.191" width="82.21" height="35.3976"/>
			<rect x="0" y="806.492" width="82.2047" height="35.3976" class="st2"/>
			<text x="4" y="831.39" class="st3" v:langID="3072"><v:paragraph/><v:tabList/>PNMT</text>		</g>
	</g>
</svg>
